<svg width="391" height="91" viewBox="0 0 391 91" fill="none" xmlns="http://www.w3.org/2000/svg">
<g clip-path="url(#clip0_2411_1613)">
<path d="M44.46 25.17C50.5241 25.17 55.44 20.2541 55.44 14.19C55.44 8.12592 50.5241 3.21001 44.46 3.21001C38.3959 3.21001 33.48 8.12592 33.48 14.19C33.48 20.2541 38.3959 25.17 44.46 25.17Z" fill="#006837"/>
<path d="M24.67 23.52C26.06 22.13 28.24 22.09 29.68 23.39C29.74 23.41 29.81 23.48 29.85 23.52C31.26 24.93 31.26 27.24 29.83 28.68C21.76 36.75 21.74 49.9 29.81 57.97C37.9 66.06 51.06 66.04 59.12 57.97C67.19 49.9 67.19 36.77 59.1 28.68C57.69 27.27 57.69 24.96 59.12 23.52C59.16 23.48 59.23 23.41 59.29 23.39C60.72 22.08 62.88 22.15 64.25 23.52C75.18 34.45 75.18 52.21 64.27 63.12C53.36 74.03 35.58 74.05 24.65 63.12C13.74 52.21 13.76 34.43 24.67 23.52Z" fill="#FF0000"/>
<path d="M26.93 25.78C27.81 24.9 28.73 24.11 29.67 23.38C29.73 23.4 29.8 23.47 29.84 23.51C31.25 24.92 31.25 27.23 29.82 28.67C21.75 36.74 21.73 49.89 29.8 57.96C37.89 66.05 51.05 66.03 59.11 57.96C67.18 49.89 67.18 36.76 59.09 28.67C57.68 27.26 57.68 24.95 59.11 23.51C59.15 23.47 59.22 23.4 59.28 23.38C60.22 24.11 61.14 24.9 62.02 25.78C71.69 35.45 71.69 51.16 62 60.85C52.31 70.54 36.6 70.54 26.93 60.87C17.24 51.18 17.24 35.47 26.93 25.78Z" fill="#C1272D"/>
<path d="M44.46 77.02C48.9335 77.02 52.56 73.3935 52.56 68.92C52.56 64.4465 48.9335 60.82 44.46 60.82C39.9865 60.82 36.36 64.4465 36.36 68.92C36.36 73.3935 39.9865 77.02 44.46 77.02Z" fill="#C1272D"/>
<path d="M38.2 46.56C38.01 46.78 38.04 47.11 38.27 47.28L38.71 47.6C40.7 48.9 42.68 50.22 44.69 51.48C45.97 52.28 47.36 52.42 48.83 52.02C49.99 51.71 50.97 51.15 51.73 50.24C52.16 49.73 52.49 49.14 52.82 48.56C53.25 47.81 53.64 47.04 54.04 46.28C54.31 45.77 54.67 45.36 55.06 44.95C55.52 44.45 56.1 44.19 56.73 43.99C57.91 43.62 59.05 43.73 60.16 44.25C60.26 44.29 60.33 44.38 60.5 44.5C59.96 45.39 59.43 46.25 58.91 47.1C57.91 48.75 56.93 50.42 55.89 52.04C54.61 54.04 52.64 55.52 50.33 56.09C47.65 56.75 45.09 56.45 42.63 54.98C40.31 53.59 38.13 52 35.84 50.57C34.67 49.83 34.12 48.73 33.95 47.46C33.74 45.91 34.17 44.52 35.39 43.45C36.14 42.8 37.02 42.44 38.03 42.36C39.32 42.26 40.44 42.62 41.49 43.32C43.32 44.53 45.16 45.74 46.98 46.96C48.24 47.8 49.48 48.66 50.84 49.59C50.05 50.59 49.09 51.05 47.92 51.15C46.56 51.27 45.38 50.88 44.27 50.08L39.32 46.79C39.27 46.76 39.01 46.6 38.79 46.46C38.59 46.33 38.33 46.37 38.17 46.55L38.2 46.56Z" fill="#E49F24"/>
<path d="M50.72 42.32C50.91 42.1 50.88 41.77 50.65 41.6L50.21 41.28C48.22 39.98 46.24 38.66 44.23 37.4C42.95 36.6 41.56 36.46 40.09 36.86C38.93 37.17 37.95 37.73 37.19 38.64C36.76 39.15 36.43 39.74 36.1 40.32C35.67 41.07 35.28 41.84 34.88 42.6C34.61 43.11 34.25 43.52 33.86 43.93C33.4 44.43 32.82 44.69 32.19 44.89C31.01 45.26 29.87 45.15 28.76 44.63C28.66 44.59 28.59 44.5 28.42 44.38C28.96 43.49 29.49 42.63 30.01 41.78C31.01 40.13 31.99 38.46 33.03 36.84C34.31 34.84 36.28 33.36 38.59 32.79C41.27 32.13 43.83 32.43 46.29 33.9C48.61 35.29 50.79 36.88 53.08 38.31C54.25 39.05 54.8 40.15 54.97 41.42C55.18 42.97 54.75 44.36 53.53 45.43C52.78 46.08 51.9 46.44 50.89 46.52C49.6 46.62 48.48 46.26 47.43 45.56C45.6 44.35 43.76 43.14 41.94 41.92C40.68 41.08 39.44 40.22 38.08 39.29C38.87 38.29 39.83 37.83 41 37.73C42.36 37.61 43.54 38 44.65 38.8L49.6 42.09C49.65 42.12 49.91 42.28 50.13 42.42C50.33 42.55 50.59 42.51 50.75 42.33L50.72 42.32Z" fill="#CA242B"/>
<path d="M15.58 15.59C31.53 -0.360004 57.4 -0.380005 73.36 15.59C82.04 24.27 85.98 35.89 85.21 47.25H88.82C89.58 34.95 85.28 22.38 75.9 13C58.56 -4.34 30.32 -4.34 12.99 13C3.61 22.39 -0.679996 34.95 0.0900035 47.25H3.72C2.95 35.89 6.9 24.27 15.59 15.59H15.58Z" fill="#009245"/>
<path d="M73.37 15.59C57.4 -0.380004 31.53 -0.360003 15.59 15.59C6.89 24.28 2.95 35.89 3.71 47.25H7.5C6.72 36.85 10.29 26.18 18.23 18.24C32.7 3.77 56.22 3.79 70.67 18.24C78.61 26.18 82.19 36.85 81.42 47.25H85.22C85.99 35.89 82.04 24.26 73.37 15.59Z" fill="#006837"/>
<path d="M23.4 74.15L23.45 75.46L22.28 74.65L17.33 81.36C17.24 81.03 17.14 80.73 17.07 80.38C17.03 80.31 17.05 80.22 17.07 80.11C17.09 79.99 17.11 79.86 17.13 79.73C17.15 79.5 17.17 79.23 17.18 78.93C17.18 78.64 17.15 78.29 17.05 77.87C17.04 77.73 17 77.56 16.94 77.35C16.88 77.14 16.78 76.9 16.67 76.66C16.55 76.41 16.41 76.17 16.25 75.93C16.09 75.71 15.94 75.49 15.76 75.31C15.73 75.3 15.7 75.27 15.67 75.24L15.51 75.08L15.62 73.42C16.65 73.54 17.59 73.7 18.61 73.71C18.55 73.32 18.43 72.96 18.29 72.64C18.11 72.27 17.95 71.96 17.81 71.74C17.67 71.5 17.58 71.31 17.54 71.16V71.11L17.72 70.65C17.41 70.34 17.08 70.04 16.79 69.71L10.63 75.32L10.52 73.58L16.06 68.84C14.04 66.61 12.49 64.01 11.06 61.39C11.04 61.61 11.06 61.81 11.06 62.03L11.01 62.07C10.28 62.76 9.71999 63.44 9.33999 64.06C8.95999 64.68 8.70999 65.27 8.57999 65.81C8.45999 66.34 8.42999 66.84 8.52999 67.28C8.74999 68.11 9.24999 68.85 9.79999 69.13C10.07 69.27 10.34 69.35 10.6 69.37C10.87 69.39 11.13 69.36 11.36 69.28C11.6 69.2 11.8 69.11 11.95 68.99C12.08 68.89 12.2 68.76 12.3 68.59C12.41 68.42 12.49 68.24 12.55 68.05C12.61 67.86 12.64 67.68 12.63 67.49C12.63 67.33 12.58 67.18 12.49 67.05C12.36 67.23 12.22 67.37 12.08 67.46C11.87 67.61 11.66 67.69 11.45 67.7C11.24 67.72 11.05 67.69 10.86 67.62C10.68 67.55 10.51 67.45 10.35 67.32C10.2 67.19 10.07 67.06 9.97999 66.93C9.64999 66.48 9.57999 66 9.69999 65.55C9.81999 65.11 10.08 64.78 10.47 64.55C10.64 64.45 10.84 64.39 11.07 64.35C11.3 64.32 11.54 64.33 11.78 64.39C12.03 64.44 12.26 64.56 12.5 64.71C12.76 64.86 12.98 65.07 13.17 65.34C13.29 65.51 13.41 65.76 13.53 66.12C13.66 66.47 13.71 66.88 13.7 67.32C13.69 67.77 13.58 68.24 13.4 68.72C13.21 69.21 12.84 69.69 12.27 70.14C11.97 70.38 11.64 70.56 11.28 70.7C10.91 70.83 10.52 70.89 10.11 70.87C9.70999 70.84 9.31999 70.71 8.93999 70.49C8.54999 70.27 8.18999 69.92 7.86999 69.45C7.75999 69.29 7.63999 69.08 7.50999 68.81C7.37999 68.53 7.24999 68.21 7.19999 67.82C7.14999 67.43 7.14999 66.98 7.20999 66.49C7.26999 66 7.42999 65.46 7.67999 64.9C7.92999 64.34 8.29999 63.74 8.78999 63.13C9.26999 62.52 9.95999 61.86 10.79 61.19L10.9 61.11L10.34 59.88L2.72999 63.3L3.14999 61.67L8.88999 59.29C8.88999 59.29 8.97999 59.24 9.07999 59.13C9.16999 59.04 9.24999 58.93 9.32999 58.82C9.40999 58.7 9.47999 58.59 9.53999 58.48C9.58999 58.39 9.61999 58.32 9.62999 58.29C9.13999 56.77 8.50999 55.3 8.19999 53.73C7.98999 53.94 7.81999 54.21 7.69999 54.52C7.56999 54.87 7.52999 55.28 7.65999 55.68C7.69999 55.81 7.84999 56.11 8.27999 56.77L8.33999 56.87C7.96999 57.39 7.59999 57.93 7.22999 58.48L7.11999 58.41C6.60999 58.11 6.08999 57.93 5.56999 57.88C5.03999 57.83 4.48999 57.9 3.93999 58.08C3.46999 58.24 3.05999 58.42 2.74999 58.61C2.41999 58.81 2.12999 59.01 1.86999 59.2L1.32999 59.47L1.48999 58.31L1.53999 58.28C2.00999 57.92 2.48999 57.59 2.95999 57.31C3.43999 57.03 3.95999 56.81 4.49999 56.64C4.70999 56.6 4.89999 56.57 5.06999 56.55C5.23999 56.53 5.41999 56.51 5.59999 56.51C5.77999 56.51 5.95999 56.51 6.13999 56.53C6.25999 56.54 6.38999 56.56 6.53999 56.57V56.54C6.26999 55.88 6.33999 55.2 6.56999 54.59C6.77999 54.05 7.09999 53.57 7.52999 53.18C7.38999 53.07 7.24999 52.98 7.09999 52.9C6.88999 52.78 6.67999 52.69 6.47999 52.61C6.27999 52.53 6.07999 52.48 5.89999 52.45C5.71999 52.42 5.56999 52.42 5.45999 52.45C5.26999 52.49 5.14999 52.56 5.08999 52.66C4.93999 52.92 5.08999 53.3 5.44999 53.69C5.67999 53.93 5.96999 54.15 6.31999 54.33L6.45999 54.4L6.39999 54.55C6.19999 55.07 5.94999 55.48 5.64999 55.76C5.34999 56.05 4.99999 56.25 4.61999 56.37C4.32999 56.46 4.02999 56.49 3.73999 56.47C3.43999 56.45 3.15999 56.36 2.89999 56.21C2.63999 56.06 2.39999 55.84 2.18999 55.56C1.97999 55.28 1.81999 54.93 1.72999 54.53C1.55999 53.78 1.52999 53.1 1.81999 52.48C2.06999 51.88 2.44999 51.35 2.94999 50.92C3.43999 50.49 4.01999 50.15 4.67999 49.9C5.32999 49.65 6.02999 49.48 6.73999 49.39L6.96999 49.36C7.05999 49.35 7.16999 49.35 7.28999 49.36H7.37999L7.32999 49.03L8.26999 48.24C8.66999 51.62 9.46999 54.93 10.69 58.1V58.15C10.62 58.34 10.58 58.49 10.55 58.61L12.4 57.84L12.35 58.11C12.31 58.36 12.17 58.59 11.96 58.81C11.76 59.01 11.57 59.18 11.39 59.31L11.28 59.4L12.07 61.14L13.02 62.8C13.6 63.94 14.39 64.95 15.1 66C15.1 65.95 15.09 65.9 15.07 65.85C15 65.59 14.85 65.29 14.62 64.96L14.36 64.59C14.13 64.25 13.94 63.98 13.81 63.72C13.69 63.45 13.62 63.19 13.6 62.97C13.58 62.73 13.63 62.52 13.74 62.34C13.85 62.16 14.02 62.01 14.27 61.87C14.43 61.78 14.62 61.71 14.84 61.67C15.07 61.63 15.31 61.64 15.56 61.71C15.8 61.78 16.06 61.92 16.31 62.12C16.57 62.32 16.86 62.59 17.11 62.96C17.45 63.45 17.68 63.95 17.81 64.46C17.93 64.98 18.07 65.42 18.1 65.87C18.14 66.31 18.13 66.74 18.08 67.12C18.03 67.5 17.96 67.83 17.89 68.09C17.85 68.22 17.79 68.37 17.71 68.53C17.64 68.66 17.57 68.8 17.49 68.97C17.93 69.46 18.41 69.9 18.87 70.37C19.35 70.82 19.77 71.33 20.29 71.73L21.8 72.98C22.05 73.19 22.29 73.41 22.56 73.6L23.37 74.15H23.4ZM17.18 75.08C17.3 75.31 17.42 75.53 17.51 75.74C17.64 76.02 17.75 76.31 17.84 76.61C17.93 76.91 18 77.22 18.04 77.55C18.06 77.74 18.09 77.96 18.11 78.19L21.4 73.99L19.24 72.19C19.27 72.28 19.3 72.37 19.32 72.45C19.39 72.69 19.45 72.94 19.5 73.2C19.54 73.46 19.58 73.73 19.6 74.02C19.62 74.3 19.62 74.64 19.62 75.02V75.16C18.82 75.15 18.01 75.12 17.18 75.08ZM15.33 63.79C15.56 64.09 15.82 64.47 15.99 64.86C16.1 65.11 16.16 65.38 16.19 65.65C16.21 65.93 16.19 66.21 16.15 66.48C16.12 66.66 16.05 66.86 15.94 67.08L16.79 68.09C16.97 67.74 17.07 67.39 17.11 67.03C17.15 66.61 17.13 66.21 17.05 65.82C16.95 65.44 16.87 65.02 16.69 64.65C16.37 63.94 15.93 63.29 15.59 63.02C15.43 62.9 15.3 62.81 15.2 62.76C15.08 62.7 15.01 62.7 14.98 62.7C14.89 62.71 14.87 62.73 14.87 62.73C14.82 62.76 14.82 62.86 14.82 62.92C14.82 63.06 14.89 63.24 15.05 63.45L15.12 63.55C15.12 63.55 15.23 63.68 15.32 63.8L15.33 63.79ZM7.72999 51.61L7.43999 49.59L7.18999 50.23H7.10999C6.45999 50.34 5.84999 50.51 5.30999 50.75C4.76999 50.99 4.30999 51.29 3.93999 51.64C3.57999 51.98 3.29999 52.38 3.13999 52.8C3.00999 53.21 2.98999 53.63 3.09999 54.05C3.15999 54.31 3.24999 54.53 3.35999 54.69C3.46999 54.86 3.57999 54.99 3.70999 55.07C3.83999 55.16 3.95999 55.22 4.09999 55.24C4.23999 55.27 4.36999 55.26 4.48999 55.23C4.56999 55.21 4.64999 55.17 4.70999 55.13L4.79999 55.07L4.70999 54.95C4.60999 54.81 4.51999 54.69 4.41999 54.56C4.32999 54.42 4.23999 54.28 4.15999 54.14C3.95999 53.77 3.89999 53.39 3.94999 52.95C3.96999 52.68 4.06999 52.42 4.22999 52.17C4.37999 51.93 4.58999 51.71 4.84999 51.53C5.10999 51.35 5.43999 51.22 5.82999 51.16C6.03999 51.12 6.24999 51.12 6.45999 51.16C6.66999 51.19 6.86999 51.24 7.05999 51.3C7.24999 51.36 7.42999 51.44 7.58999 51.54L7.74999 51.63L7.72999 51.61Z" fill="#231F20"/>
<path d="M15.88 76.56C15.61 76.35 15.35 76.23 15.06 76.21C14.78 76.2 14.54 76.29 14.35 76.49C14.16 76.69 14.08 76.94 14.11 77.24C14.14 77.54 14.28 77.82 14.56 78.04C14.81 78.25 15.1 78.36 15.4 78.37C15.71 78.37 15.95 78.27 16.13 78.06C16.31 77.85 16.37 77.59 16.32 77.3C16.27 77.01 16.12 76.76 15.88 76.56Z" fill="#231F20"/>
<path d="M27.37 84.41C27.3 84.26 27.2 84.12 27.07 84C26.94 83.88 26.79 83.77 26.6 83.69C26.31 83.57 26.04 83.58 25.8 83.69C25.58 83.8 25.41 83.98 25.29 84.22L25.23 84.35C25.17 84.24 25.12 84.13 25.09 84.01C25 83.74 24.96 83.46 24.95 83.18C24.95 82.88 24.98 82.6 25.04 82.34C25.1 82.08 25.18 81.85 25.28 81.65C25.42 81.38 25.57 81.15 25.72 80.95C25.87 80.75 26.03 80.58 26.19 80.44C26.34 80.3 26.5 80.17 26.66 80.05C26.83 79.94 26.99 79.82 27.15 79.71C27.74 79.38 28.29 79.16 28.79 79.07C29.28 78.98 29.76 78.99 30.23 79.12L30.45 79.18L30.25 78L30.17 77.96C29.97 77.87 29.79 77.8 29.64 77.76C29.48 77.72 29.34 77.68 29.21 77.67C29.07 77.65 28.94 77.66 28.81 77.67C28.69 77.69 28.57 77.7 28.41 77.72C28.05 77.8 27.65 77.96 27.3 78.1C26.93 78.25 26.57 78.45 26.22 78.69C25.87 78.93 25.53 79.23 25.21 79.58C24.89 79.93 24.6 80.34 24.36 80.8C24.05 81.38 23.86 81.94 23.8 82.45C23.74 82.97 23.77 83.45 23.88 83.88C24 84.32 24.19 84.72 24.48 85.01C24.77 85.32 25.1 85.56 25.46 85.72C25.73 85.84 25.97 85.91 26.19 85.93C26.41 85.95 26.61 85.93 26.78 85.88C26.94 85.83 27.08 85.75 27.19 85.64C27.3 85.54 27.38 85.43 27.43 85.31C27.49 85.18 27.51 85.03 27.5 84.87C27.49 84.71 27.45 84.56 27.38 84.41H27.37Z" fill="#231F20"/>
<path d="M57.97 78.27L59.03 78.94C58.61 79.12 58.2 79.34 57.76 79.47L60.74 87.26L59.59 86.88L59.57 86.82C59.41 86.37 59.16 85.95 58.84 85.56C58.52 85.18 58.16 84.85 57.78 84.59C57.4 84.33 57.01 84.13 56.63 84.01C56.38 83.93 56.15 83.89 55.93 83.9C55.95 83.94 55.98 83.97 56 84C56.06 84.11 56.11 84.22 56.14 84.32C56.2 84.51 56.2 84.71 56.16 84.9C56.12 85.08 56.04 85.25 55.92 85.41C55.8 85.56 55.67 85.69 55.51 85.8C55.12 86.06 54.68 86.12 54.3 86.06C54.07 86.02 53.87 85.95 53.7 85.83C53.53 85.72 53.39 85.58 53.28 85.42C53.17 85.26 53.09 85.08 53.05 84.88C52.99 84.6 53 84.34 53.06 84.1C53.13 83.85 53.24 83.63 53.4 83.44C53.56 83.25 53.75 83.09 53.98 82.96C54.39 82.73 54.84 82.58 55.49 82.6C55.77 82.6 56.08 82.61 56.39 82.68C56.71 82.75 57.05 82.87 57.39 83.04C57.57 83.13 57.75 83.24 57.93 83.36L56.7 79.83C54.91 80.52 53.03 80.91 51.16 81.32L52.66 89.53L51.15 88.67L50.38 83.57C50.38 83.57 50.35 83.46 50.18 83.23C50.05 83.05 49.9 82.87 49.72 82.7C49.54 82.53 49.35 82.37 49.14 82.22C48.96 82.1 48.8 82.03 48.65 82.02C48.52 82.06 48.41 82.13 48.33 82.22C48.23 82.34 48.14 82.48 48.06 82.63C49.05 83.18 49.63 83.77 49.72 84.39C49.76 84.67 49.68 84.92 49.49 85.14C49.08 85.61 48.36 85.7 47.79 85.33C47.59 85.21 47.43 85.07 47.3 84.91C47.17 85.08 47.01 85.24 46.83 85.39C46.56 85.62 46.26 85.74 45.96 85.76C45.56 85.78 45.25 85.71 45.03 85.55C44.81 85.39 44.69 85.11 44.69 84.74C44.69 84.53 44.75 84.31 44.86 84.1C44.97 83.89 45.1 83.69 45.25 83.51C45.4 83.32 45.56 83.16 45.73 83.01C45.86 82.9 45.99 82.81 46.1 82.74C46.01 82.51 45.88 82.32 45.71 82.16C45.52 81.99 45.3 81.91 45.04 81.92C44.44 81.98 43.84 81.92 43.24 81.89L42.98 90.22L42.06 89.44V89.38C42.09 88.9 42.02 88.42 41.87 87.94C41.72 87.47 41.52 87.03 41.27 86.65C41.02 86.27 40.74 85.95 40.43 85.69C40.23 85.51 40.03 85.36 39.83 85.27C39.83 85.31 39.85 85.35 39.85 85.39C39.87 85.51 39.87 85.63 39.85 85.75C39.83 85.95 39.76 86.13 39.65 86.28C39.54 86.43 39.4 86.56 39.24 86.66C39.07 86.76 38.9 86.83 38.71 86.87C38.25 86.97 37.82 86.86 37.49 86.66C37.3 86.54 37.14 86.4 37.02 86.23C36.91 86.07 36.83 85.88 36.79 85.69C36.75 85.5 36.75 85.31 36.79 85.11C36.84 84.83 36.95 84.59 37.11 84.39C37.27 84.19 37.46 84.03 37.68 83.91C37.9 83.79 38.14 83.71 38.4 83.68C38.87 83.61 39.34 83.65 39.94 83.91C40.2 84.02 40.47 84.21 40.74 84.38C41.01 84.56 41.27 84.8 41.53 85.08C41.66 85.23 41.79 85.4 41.91 85.58L42.14 81.85C41.66 81.82 41.18 81.82 40.71 81.77L39.29 81.56C38.35 81.41 37.39 81.34 36.47 81.07L34.7 89.22L33.63 87.86L34.72 83.48C34.76 83.31 34.75 83.11 34.7 82.89C34.66 82.73 34.61 82.57 34.56 82.43C33.32 83.19 32.05 83.76 30.7 84.34L29.56 83.21L29.76 83.13C30.42 82.87 30.89 82.65 31.16 82.51C31.48 82.33 31.54 82.28 31.55 82.27C31.57 82.2 31.55 82.12 31.5 82.04C31.43 81.95 31.35 81.88 31.24 81.85C31.21 81.84 31.14 81.83 31.02 81.85C30.92 81.86 30.83 81.88 30.73 81.89L30.67 81.91C30.52 81.95 30.36 81.98 30.2 81.99C29.87 82.02 29.64 81.94 29.44 81.76C29.35 81.68 29.27 81.57 29.21 81.46C29.15 81.34 29.12 81.21 29.12 81.05C29.12 80.9 29.16 80.73 29.24 80.54C29.36 80.26 29.56 80.01 29.84 79.78C30.11 79.56 30.42 79.38 30.76 79.25C31.11 79.1 31.48 78.99 31.86 78.95C32.25 78.91 32.62 78.95 32.98 79.07C33.67 79.3 34.18 79.73 34.56 80.21C34.83 80.57 35.06 80.98 35.24 81.43L36.05 78.17L36.24 78.39C36.34 78.5 36.41 78.63 36.46 78.78C36.5 78.92 36.54 79.06 36.57 79.2C36.6 79.35 36.62 79.49 36.63 79.63C36.63 79.77 36.65 79.89 36.65 80V80.03C37 80.11 37.34 80.22 37.69 80.27L38.75 80.42L40.88 80.73L43.03 80.83C43.75 80.86 44.46 80.93 45.18 80.86C45.36 80.86 45.54 80.89 45.72 80.97C45.89 81.05 46.05 81.15 46.2 81.28C46.35 81.41 46.48 81.55 46.6 81.71C46.66 81.79 46.71 81.86 46.76 81.94C47.02 81.54 47.26 81.26 47.48 81.07C47.76 80.84 47.99 80.73 48.19 80.69C48.42 80.66 48.64 80.69 48.86 80.76C49.07 80.84 49.27 80.95 49.46 81.08C49.65 81.21 49.82 81.37 50 81.54L50.12 81.66L49.68 78.75L49.95 78.91C50.08 78.99 50.2 79.1 50.31 79.23C50.42 79.37 50.52 79.5 50.6 79.63C50.68 79.77 50.76 79.9 50.82 80.03L50.94 80.28C52.15 80.07 53.32 79.72 54.52 79.46C55.68 79.07 56.85 78.69 57.99 78.26L57.97 78.27ZM32.74 80.34C32.45 80.24 32.13 80.22 31.79 80.29C31.55 80.34 31.31 80.45 31.05 80.63C31.22 80.63 31.38 80.67 31.53 80.72C31.79 80.81 32 80.97 32.18 81.2C32.31 81.38 32.4 81.58 32.44 81.82C32.92 81.59 33.38 81.37 33.85 81.12C33.55 80.76 33.18 80.49 32.74 80.34Z" fill="#231F20"/>
<path d="M76.21 67.62C76.73 67.67 77.3 67.9 77.89 68.31C78.17 68.51 78.43 68.76 78.65 69.04C78.88 69.33 79.05 69.65 79.16 70C79.27 70.35 79.31 70.74 79.27 71.14C79.23 71.43 79.12 71.73 78.96 72.03H79C79.12 71.99 79.25 71.96 79.36 71.93L79.43 71.91L80.39 72.66C80.36 73.34 80.31 74.03 80.26 74.73L82.14 73.63C82.5 73.43 82.68 73.35 82.8 73.42L83.57 73.62C82.45 74.54 81.22 75.34 80.06 76.15C79.66 76.31 79.27 76.47 78.85 76.6C79.01 75.54 79.06 74.42 79.13 73.38L78.41 72.78C78.29 72.92 78.13 73.07 77.93 73.25C77.7 73.46 77.41 73.65 77.06 73.83C76.72 74.01 76.28 74.13 75.8 74.2C75.31 74.28 74.74 74.27 74.13 74.18C73.52 74.09 72.83 73.9 72.11 73.59C71.38 73.29 70.58 72.83 69.71 72.23L69.6 72.15C68.64 72.93 67.71 73.76 66.72 74.51L66.76 74.57C67.19 74.41 67.56 74.23 67.94 74.16C68.36 74.08 68.76 74.06 69.14 74.1C69.52 74.14 69.88 74.25 70.19 74.4C70.5 74.56 70.77 74.76 70.98 75C71.1 75.14 71.22 75.32 71.32 75.53C71.42 75.74 71.49 75.97 71.52 76.21C71.56 76.46 71.54 76.71 71.48 76.95C71.34 77.45 70.87 77.89 70.24 77.92C69.92 77.94 69.66 77.81 69.45 77.55C69.38 77.46 69.33 77.36 69.29 77.23C69.25 77.1 69.22 76.96 69.22 76.81C69.22 76.65 69.25 76.5 69.31 76.34C69.41 76.09 69.59 75.87 69.94 75.73L70.07 75.68C70.04 75.6 69.99 75.52 69.93 75.44C69.82 75.31 69.68 75.23 69.49 75.19C69.29 75.15 69.08 75.14 68.85 75.18C68.62 75.22 68.38 75.29 68.14 75.4C67.95 75.5 67.76 75.58 67.59 75.69L71.67 81.15L70.55 81.22L70.51 81.19C69.51 80.5 68.55 80.12 67.65 80.05C66.77 80.01 65.88 80.11 65.05 80.45L64.98 80.48L63.48 79.88C63.95 79.12 64.39 78.37 64.81 77.64C65.22 76.89 65.57 76.08 65.92 75.32L65.8 75.15C65.18 75.56 64.59 76.03 63.94 76.4L61.99 77.5L60.91 76.91C64.87 74.89 68.44 72.12 71.41 68.81C71.35 67.44 71.24 66.13 71.1 64.88L71.72 63.97C71.9 64.52 72.08 65.08 72.25 65.65C72.4 66.21 72.52 66.76 72.65 67.33C73.21 66.71 73.68 66.02 74.15 65.33H75.43L74.2 67.11L72.81 68.78C71.93 69.94 70.83 70.88 69.83 71.92L70.44 71.73L70.5 71.76C71.37 72.27 72.17 72.62 72.88 72.82C73.58 73.02 74.23 73.1 74.79 73.08C75.35 73.07 75.82 72.93 76.19 72.7C76.93 72.27 77.51 71.59 77.64 70.99C77.71 70.69 77.71 70.41 77.66 70.16C77.61 69.9 77.51 69.66 77.36 69.45C77.21 69.24 77.06 69.07 76.91 68.95C76.78 68.85 76.62 68.78 76.44 68.73C76.25 68.68 76.06 68.65 75.85 68.64C75.65 68.64 75.46 68.66 75.29 68.72C75.13 68.77 75.01 68.86 74.9 68.98C75.11 69.06 75.28 69.15 75.41 69.26C75.61 69.42 75.74 69.6 75.82 69.8C75.89 69.99 75.92 70.19 75.9 70.39C75.89 70.58 75.83 70.77 75.75 70.95C75.67 71.13 75.57 71.28 75.47 71.41C75.11 71.83 74.71 72.08 74.24 72.08C73.78 72.08 73.39 71.92 73.06 71.61C72.92 71.48 72.8 71.3 72.71 71.09C72.62 70.88 72.57 70.65 72.55 70.4C72.54 70.15 72.55 69.87 72.63 69.59C72.7 69.31 72.85 69.03 73.06 68.78C73.19 68.62 73.41 68.44 73.72 68.23C74.03 68.02 74.4 67.85 74.84 67.74C75.25 67.61 75.72 67.57 76.24 67.61L76.21 67.62ZM66.25 77.71C66.07 78.07 65.89 78.48 65.66 78.87C66.13 78.83 66.61 78.8 67.12 78.85C67.58 78.89 68.08 79 68.61 79.17L66.79 76.58C66.6 76.98 66.42 77.35 66.25 77.71Z" fill="#231F20"/>
<path d="M83.65 49.79C83.96 49.69 84.29 49.66 84.61 49.7C85.13 49.76 85.53 49.96 85.82 50.28C86.12 50.62 86.23 51.03 86.17 51.48C86.12 51.81 85.98 52.07 85.75 52.24C85.53 52.41 85.29 52.46 85.04 52.42C84.82 52.38 84.62 52.25 84.45 52.03C84.2 51.73 84.15 51.34 84.31 50.94C84.33 50.89 84.36 50.84 84.39 50.79C84.32 50.75 84.24 50.72 84.13 50.71C84.05 50.7 83.97 50.71 83.88 50.74C83.79 50.77 83.7 50.84 83.61 50.94C83.52 51.04 83.43 51.19 83.35 51.37C83.23 51.62 83.21 51.94 83.1 52.42C83.09 52.5 83.07 52.59 83.06 52.69L89.08 53.94L88.23 54.78H88.16C87.26 54.63 86.51 54.7 85.95 54.94C85.48 55.14 85.12 55.43 84.87 55.8H84.9C85.06 55.85 85.2 55.93 85.31 56.05C85.41 56.16 85.49 56.29 85.54 56.43C85.59 56.57 85.61 56.71 85.6 56.86C85.58 57.18 85.47 57.46 85.26 57.7C85.15 57.83 85.03 57.93 84.89 58.01C84.76 58.09 84.63 58.14 84.48 58.17C84.33 58.21 84.19 58.2 84.07 58.17C83.78 58.07 83.56 57.86 83.4 57.54C83.26 57.26 83.2 56.94 83.23 56.58C83.19 56.56 83.16 56.54 83.12 56.52C83.07 56.49 83.03 56.48 83 56.47C82.89 56.44 82.76 56.42 82.61 56.41C82.47 56.41 82.34 56.43 82.22 56.47C82.1 56.51 81.99 56.58 81.89 56.67C81.8 56.76 81.72 56.89 81.67 57.05C81.65 57.1 81.64 57.17 81.62 57.27C81.69 57.28 81.75 57.3 81.81 57.32C82.1 57.42 82.3 57.61 82.4 57.89C82.58 58.37 82.44 58.87 82.16 59.16C82.05 59.27 81.94 59.37 81.81 59.43C81.67 59.49 81.54 59.52 81.41 59.53C81.28 59.53 81.17 59.51 81.08 59.48C80.74 59.34 80.52 59.1 80.37 58.74C80.25 58.45 80.2 58.15 80.25 57.86C80.05 57.87 79.87 57.91 79.69 57.99C79.47 58.08 79.29 58.24 79.14 58.43L78.58 59.67L86.21 63.04L84.68 63.82L80.61 61.87C80.45 61.79 80.26 61.76 80.03 61.78C79.86 61.78 79.7 61.8 79.55 61.82C80.02 63.18 80.31 64.53 80.64 65.98C80.19 66.28 79.78 66.61 79.3 66.87L79.27 66.67C79.17 65.98 79.02 65.47 78.94 65.17C78.83 64.81 78.78 64.75 78.77 64.74C78.71 64.71 78.63 64.71 78.54 64.74C78.44 64.79 78.36 64.86 78.3 64.96C78.28 64.99 78.26 65.05 78.25 65.18C78.25 65.28 78.25 65.38 78.24 65.48V65.54C78.26 65.7 78.25 65.86 78.22 66.01C78.17 66.33 78.03 66.53 77.82 66.69C77.72 66.77 77.61 66.82 77.48 66.86C77.36 66.89 77.22 66.9 77.07 66.86C76.92 66.83 76.76 66.76 76.59 66.64C76.34 66.47 76.13 66.22 75.96 65.9C75.8 65.59 75.68 65.25 75.62 64.89C75.55 64.52 75.57 64.16 75.59 63.77C75.62 63.38 75.73 63.02 75.91 62.68C76.27 62.05 76.75 61.62 77.37 61.36C77.78 61.17 78.22 61.03 78.69 60.93L75.66 59.48L75.91 59.34C76.03 59.27 76.17 59.22 76.33 59.2C76.47 59.18 76.62 59.17 76.76 59.18C76.91 59.18 77.05 59.19 77.19 59.21L77.59 59.27L78.15 58.04C78.31 57.62 78.44 57.19 78.59 56.76L79.03 55.48C79.19 55.06 79.32 54.63 79.41 54.18L80.05 51.55L80.44 48.87L81.6 48.22C81.38 49.56 81.26 50.92 80.97 52.24L81.64 52.38C81.78 51.94 81.9 51.54 82.07 51.21C82.27 50.84 82.5 50.53 82.77 50.3C83.04 50.07 83.34 49.9 83.65 49.8V49.79ZM82.47 54.43C82.31 54.7 82.1 54.95 81.86 55.17C81.63 55.39 81.33 55.56 81 55.68C80.7 55.79 80.37 55.84 80.03 55.82L79.67 56.87C79.8 56.85 79.94 56.85 80.09 56.86C80.26 56.87 80.41 56.89 80.53 56.9C80.65 56.67 80.79 56.46 80.95 56.26C81.14 56.02 81.37 55.81 81.63 55.65C81.9 55.49 82.19 55.37 82.56 55.3C82.89 55.24 83.3 55.26 83.75 55.34C83.93 55.01 84.16 54.76 84.44 54.58C84.59 54.49 84.74 54.4 84.9 54.32L82.8 53.82C82.72 54.02 82.62 54.23 82.49 54.45L82.47 54.43ZM80.96 54.67C81.14 54.52 81.28 54.22 81.39 53.76L81.46 53.49L80.7 53.31L80.35 54.77C80.35 54.77 80.43 54.8 80.44 54.8C80.62 54.85 80.78 54.8 80.95 54.67H80.96ZM77.12 63.15C76.97 63.42 76.89 63.73 76.89 64.08C76.89 64.32 76.96 64.59 77.08 64.88C77.12 64.71 77.18 64.56 77.25 64.42C77.38 64.18 77.58 64 77.84 63.88C78.04 63.79 78.26 63.74 78.5 63.74L78.08 62.21C77.66 62.43 77.33 62.74 77.1 63.15H77.12Z" fill="#231F20"/>
</g>
<path d="M126.45 47.14C126.45 49.34 125.75 51.19 124.35 52.69C122.95 54.17 121.02 54.91 118.56 54.91C115.76 54.91 113.51 53.95 111.81 52.03C110.11 50.09 109.26 47.44 109.26 44.08C109.26 43.52 109.27 43.08 109.29 42.76H113.43C113.41 43.04 113.4 43.42 113.4 43.9C113.4 46.26 113.85 48.09 114.75 49.39C115.67 50.67 116.94 51.31 118.56 51.31C119.74 51.31 120.67 51.01 121.35 50.41C122.05 49.81 122.45 48.95 122.55 47.83C122.01 47.95 121.46 48.01 120.9 48.01C119.24 48.01 117.9 47.53 116.88 46.57C115.86 45.59 115.35 44.29 115.35 42.67C115.35 40.75 115.97 39.14 117.21 37.84H107.46V34.48H135.27V37.84H125.7C127 39.6 129.55 40.99 133.35 42.01C132.33 44.51 131.82 47.24 131.82 50.2C131.82 51.66 132.01 53.13 132.39 54.61H128.34C127.98 53.17 127.8 51.72 127.8 50.26C127.8 47.9 128.13 45.84 128.79 44.08C125.15 42.76 122.79 40.9 121.71 38.5C120.37 39.64 119.7 40.92 119.7 42.34C119.7 43.84 120.58 44.59 122.34 44.59C123.54 44.59 124.73 44.32 125.91 43.78C126.27 44.82 126.45 45.94 126.45 47.14ZM143.362 37.84H140.812V54.61H136.612V39.7C136.612 38.92 136.502 38.42 136.282 38.2C136.082 37.96 135.662 37.84 135.022 37.84H134.062V34.48H135.562C136.222 34.48 136.722 34.82 137.062 35.5C136.862 34.42 136.762 33.46 136.762 32.62V32.08H140.812V34.48H143.362V37.84ZM161.737 45.31C161.737 47.87 160.917 49.93 159.277 51.49C157.637 53.03 155.517 53.8 152.917 53.8C150.117 53.8 147.837 52.94 146.077 51.22C144.337 49.48 143.467 46.85 143.467 43.33C143.467 42.53 143.507 41.78 143.587 41.08H147.577C147.517 41.76 147.487 42.5 147.487 43.3C147.487 45.4 147.957 47.08 148.897 48.34C149.837 49.58 151.177 50.2 152.917 50.2C154.397 50.2 155.537 49.75 156.337 48.85C157.137 47.95 157.537 46.77 157.537 45.31C157.537 44.43 157.387 43.73 157.087 43.21C156.807 42.67 156.387 42.4 155.827 42.4C155.347 42.4 154.967 42.58 154.687 42.94C154.427 43.3 154.297 43.79 154.297 44.41C154.297 45.11 154.397 45.79 154.597 46.45H150.697C150.397 45.75 150.247 44.97 150.247 44.11C150.247 42.63 150.737 41.42 151.717 40.48C152.697 39.52 154.007 39.04 155.647 39.04C157.487 39.04 158.957 39.65 160.057 40.87C161.177 42.07 161.737 43.55 161.737 45.31ZM163.297 37.84H142.147V34.48H163.297V37.84ZM171.399 37.84H168.849V54.61H164.649V37.84H162.129V34.48H164.649V33.67C164.649 31.95 164.009 30.58 162.729 29.56C161.449 28.52 159.649 28 157.329 28C155.329 28 154.329 28.43 154.329 29.29C154.329 29.79 154.629 30.13 155.229 30.31C155.829 30.49 156.719 30.58 157.899 30.58C158.859 30.58 159.809 30.51 160.749 30.37V32.98C159.909 33.24 158.639 33.37 156.939 33.37C152.599 33.37 150.429 32.01 150.429 29.29C150.429 27.95 151.069 26.88 152.349 26.08C153.629 25.28 155.289 24.88 157.329 24.88C160.709 24.88 163.469 25.76 165.609 27.52C167.769 29.26 168.849 31.32 168.849 33.7V34.48H171.399V37.84ZM180.175 41.68V45.25L176.245 47.98L182.275 50.59V37.84H174.325L180.175 41.68ZM189.025 37.84H186.475V54.61H182.275L171.835 50.35L171.865 50.32V46.36L176.185 43.45L171.955 40.96V37.84H170.185V34.48H189.025V37.84ZM176.845 54.82C177.305 55.28 177.535 55.82 177.535 56.44C177.535 57.06 177.305 57.59 176.845 58.03C176.405 58.49 175.875 58.72 175.255 58.72C174.635 58.72 174.095 58.49 173.635 58.03C173.195 57.59 172.975 57.06 172.975 56.44C172.975 55.82 173.195 55.28 173.635 54.82C174.095 54.38 174.635 54.16 175.255 54.16C175.875 54.16 176.405 54.38 176.845 54.82ZM204.741 54.82C204.421 54.88 204.061 54.91 203.661 54.91C201.641 54.91 200.081 54.15 198.981 52.63C197.881 51.09 197.311 48.98 197.271 46.3C197.251 44.9 197.301 43.64 197.421 42.52C197.561 41.38 197.801 40.3 198.141 39.28C198.481 38.26 198.931 37.41 199.491 36.73C200.051 36.03 200.781 35.48 201.681 35.08C202.581 34.68 203.621 34.48 204.801 34.48H205.791V37.84H204.921C204.261 37.84 203.701 38.01 203.241 38.35C202.781 38.69 202.431 39.11 202.191 39.61C201.951 40.09 201.761 40.74 201.621 41.56C201.481 42.38 201.391 43.13 201.351 43.81C201.331 44.47 201.321 45.3 201.321 46.3C201.321 49.58 202.231 51.22 204.051 51.22C204.371 51.22 204.601 51.21 204.741 51.19V54.82ZM207.189 46.51L209.559 45.19C208.759 43.89 207.749 43.05 206.529 42.67V41.05C206.529 39.29 207.109 37.71 208.269 36.31C209.449 34.89 211.119 34.18 213.279 34.18C215.419 34.18 216.949 34.94 217.869 36.46V32.08H222.069V34.48H224.619V37.84H222.069V54.61H217.869V44.65L207.189 50.83V46.51ZM210.579 41.08C211.499 41.52 212.259 42.28 212.859 43.36L217.659 40.66C217.179 38.74 215.969 37.78 214.029 37.78C213.029 37.78 212.199 38.1 211.539 38.74C210.899 39.36 210.579 40.14 210.579 41.08ZM240.007 54.61H235.807C235.687 53.77 235.517 52.92 235.297 52.06C235.077 51.2 234.777 50.3 234.397 49.36C234.037 48.42 233.567 47.66 232.987 47.08C232.407 46.48 231.767 46.18 231.067 46.18C230.387 46.18 229.877 46.4 229.537 46.84C229.197 47.28 229.027 47.86 229.027 48.58C229.027 49.14 229.077 49.69 229.177 50.23H225.097C224.917 49.49 224.827 48.8 224.827 48.16C224.827 46.58 225.317 45.24 226.297 44.14C227.277 43.04 228.637 42.49 230.377 42.49C232.817 42.49 234.627 43.68 235.807 46.06V37.84H223.417V34.48H242.287V37.84H240.007V54.61ZM260.043 54.61H255.843V41.26C255.843 38.94 254.903 37.78 253.023 37.78C252.243 37.78 251.633 38.03 251.193 38.53C250.753 39.03 250.533 39.69 250.533 40.51C250.533 41.39 250.763 42.04 251.223 42.46C251.703 42.88 252.323 43.09 253.083 43.09C253.543 43.09 253.863 43.08 254.043 43.06V46.72C253.623 46.8 253.133 46.84 252.573 46.84C250.673 46.84 249.283 46.27 248.403 45.13C247.463 46.27 246.133 46.84 244.413 46.84C243.793 46.84 243.133 46.77 242.433 46.63V42.97C242.913 43.05 243.403 43.09 243.903 43.09C245.603 43.09 246.453 42.23 246.453 40.51C246.453 39.69 246.203 39.04 245.703 38.56C245.223 38.08 244.553 37.84 243.693 37.84H241.083V34.48H244.323C246.043 34.48 247.393 35.09 248.373 36.31C249.313 34.89 250.663 34.18 252.423 34.18C253.943 34.18 255.083 34.64 255.843 35.56V32.08H260.043V34.48H262.593V37.84H260.043V54.61ZM277.976 54.61H273.776C273.656 53.77 273.486 52.92 273.266 52.06C273.046 51.2 272.746 50.3 272.366 49.36C272.006 48.42 271.536 47.66 270.956 47.08C270.376 46.48 269.736 46.18 269.036 46.18C268.356 46.18 267.846 46.4 267.506 46.84C267.166 47.28 266.996 47.86 266.996 48.58C266.996 49.14 267.046 49.69 267.146 50.23H263.066C262.886 49.49 262.796 48.8 262.796 48.16C262.796 46.58 263.286 45.24 264.266 44.14C265.246 43.04 266.606 42.49 268.346 42.49C270.786 42.49 272.596 43.68 273.776 46.06V37.84H261.386V34.48H280.256V37.84H277.976V54.61ZM309.532 46.6C309.532 48.48 309.022 49.95 308.002 51.01C307.002 52.07 305.612 52.6 303.832 52.6C303.552 52.6 303.342 52.59 303.202 52.57V48.79H303.502C304.822 48.79 305.482 48.06 305.482 46.6C305.482 45.62 305.122 44.81 304.402 44.17C303.702 43.53 302.702 43.17 301.402 43.09V54.61H297.352V54.58L297.322 54.61L288.262 48.34V44.32C289.902 43 291.412 41.94 292.792 41.14C294.172 40.32 295.692 39.75 297.352 39.43V37.84H286.552V34.48H311.152V37.84H301.402V39.43C303.542 39.49 305.432 40.17 307.072 41.47C308.712 42.75 309.532 44.46 309.532 46.6ZM297.352 50.23V43.21C295.612 43.79 293.822 44.84 291.982 46.36L297.352 50.23ZM329.55 45.31C329.55 47.87 328.73 49.93 327.09 51.49C325.45 53.03 323.33 53.8 320.73 53.8C317.93 53.8 315.65 52.94 313.89 51.22C312.15 49.48 311.28 46.85 311.28 43.33C311.28 42.53 311.32 41.78 311.4 41.08H315.39C315.33 41.76 315.3 42.5 315.3 43.3C315.3 45.4 315.77 47.08 316.71 48.34C317.65 49.58 318.99 50.2 320.73 50.2C322.21 50.2 323.35 49.75 324.15 48.85C324.95 47.95 325.35 46.77 325.35 45.31C325.35 44.43 325.2 43.73 324.9 43.21C324.62 42.67 324.2 42.4 323.64 42.4C323.16 42.4 322.78 42.58 322.5 42.94C322.24 43.3 322.11 43.79 322.11 44.41C322.11 45.11 322.21 45.79 322.41 46.45H318.51C318.21 45.75 318.06 44.97 318.06 44.11C318.06 42.63 318.55 41.42 319.53 40.48C320.51 39.52 321.82 39.04 323.46 39.04C325.3 39.04 326.77 39.65 327.87 40.87C328.99 42.07 329.55 43.55 329.55 45.31ZM331.11 37.84H309.96V34.48H331.11V37.84ZM325.211 59.62V63.01L316.331 59.83V57.34L319.241 53.98L323.171 54.61L320.501 57.88L325.211 59.62ZM320.797 33.16L325.927 28.12H330.037V28.24L324.937 33.28H320.797V33.16ZM332.521 46.51L334.891 45.19C334.091 43.89 333.081 43.05 331.861 42.67V41.05C331.861 39.29 332.441 37.71 333.601 36.31C334.781 34.89 336.451 34.18 338.611 34.18C340.751 34.18 342.281 34.94 343.201 36.46V32.08H347.401V34.48H349.951V37.84H347.401V54.61H343.201V44.65L332.521 50.83V46.51ZM335.911 41.08C336.831 41.52 337.591 42.28 338.191 43.36L342.991 40.66C342.511 38.74 341.301 37.78 339.361 37.78C338.361 37.78 337.531 38.1 336.871 38.74C336.231 39.36 335.911 40.14 335.911 41.08ZM366.989 42.37C367.389 42.37 367.809 42.34 368.249 42.28V37.84H365.249V40.75C365.249 41.83 365.829 42.37 366.989 42.37ZM380.579 47.17C380.579 48.93 380.089 50.33 379.109 51.37C378.149 52.39 376.799 52.9 375.059 52.9C374.659 52.9 374.389 52.89 374.249 52.87V49.09H374.549C375.189 49.09 375.679 48.93 376.019 48.61C376.359 48.27 376.529 47.79 376.529 47.17C376.529 46.37 376.269 45.81 375.749 45.49C375.229 45.17 374.479 45.01 373.499 45.01C373.279 45.01 372.929 45.03 372.449 45.07V54.61H368.249C367.069 53.79 365.539 53.08 363.659 52.48C361.779 51.86 360.079 51.55 358.559 51.55C357.659 51.55 356.949 51.75 356.429 52.15C355.929 52.55 355.679 53.13 355.679 53.89C355.679 54.15 355.689 54.35 355.709 54.49H351.599C351.499 53.89 351.449 53.37 351.449 52.93C351.449 51.81 351.799 50.84 352.499 50.02C353.199 49.2 354.189 48.63 355.469 48.31C355.729 47.83 355.859 47.31 355.859 46.75C355.859 45.55 354.509 44.95 351.809 44.95H350.579V41.41H351.509C353.709 41.41 354.809 40.63 354.809 39.07C354.809 38.69 354.719 38.28 354.539 37.84H348.749V34.48H382.409V37.84H372.449V41.62C372.969 41.58 373.339 41.56 373.559 41.56C375.619 41.56 377.299 42.05 378.599 43.03C379.919 44.01 380.579 45.39 380.579 47.17ZM360.029 46.84C360.029 47.32 359.959 47.74 359.819 48.1C363.099 48.42 365.909 49.24 368.249 50.56V45.7C367.829 45.78 367.389 45.82 366.929 45.82C365.129 45.82 363.699 45.39 362.639 44.53C361.579 43.67 361.049 42.42 361.049 40.78V37.84H358.709C358.889 38.3 358.979 38.79 358.979 39.31C358.979 41.37 357.759 42.55 355.319 42.85C358.459 43.19 360.029 44.52 360.029 46.84Z" fill="#555658"/>
<defs>
<clipPath id="clip0_2411_1613">
<rect width="89.06" height="90.22" fill="white"/>
</clipPath>
</defs>
</svg>
